# xmcd CD database file
#
# Track frame offsets:
#	150
#	12862
#	28093
#	38730
#	50539
#	62737
#	76446
#	89640
#	103970
#	120130
#
# Disc length: 1836 seconds
#
# Revision: 0
# Processed by: cddbd v1.5.1PL2 Copyright (c) Steve Scherf et al.
# Submitted via: CDex 1.51
#
DISCID=7b072a0a
DTITLE=The Mustangs  - A Bolt From The Blues
DYEAR=2001
DGENRE=Blues
TTITLE0=Got My Mojo Working
TTITLE1=New Pony
TTITLE2=Baby What You Want me To Do
TTITLE3=I'm Ready
TTITLE4=Reconsider Baby
TTITLE5=Further On Up The Road
TTITLE6=I Can't Be Satisfied
TTITLE7=Hoochie Coochie Man
TTITLE8=Crossroads
TTITLE9=The Thrill Is Gone
EXTD=YEAR: 2001
EXTT0=
EXTT1=
EXTT2=
EXTT3=
EXTT4=
EXTT5=
EXTT6=
EXTT7=
EXTT8=
EXTT9=
PLAYORDER=
